# xmcd CD database file
#
# Track frame offsets:
#	150
#	1770
#	13024
#	16691
#	40124
#	55998
#	77598
#	96760
#	115541
#	131468
#	147698
#	165655
#	182817
#	212294
#
# Disc length: 3201 seconds
#
# Revision: 0
# Processed by: cddbd v1.5.2PL0 Copyright (c) Steve Scherf et al.
# Submitted via: CDex 1.70beta2
#
DISCID=a40c7f0e
DTITLE=B.B. KING - Blues Is King(Don't Answer The Door)
DYEAR=1967
DGENRE=Blues
TTITLE0=Introduction
TTITLE1=Waitin' On You
TTITLE2=Introduction
TTITLE3=Gamblers' Blues
TTITLE4=Tired Of Your Jive
TTITLE5=Night Life
TTITLE6=Buzz Me
TTITLE7=Don't Answer The Door
TTITLE8=Blind Love
TTITLE9=I Know What You're Puttin' Down
TTITLE10=Baby Get Lost
TTITLE11=Gonna Keep On Loving You
TTITLE12=Goin' Down Slow(Live)
TTITLE13=Sweet Sixteen, Parts One And Two(Live, Complete Version)
EXTD=YEAR: 1967
EXTT0=
EXTT1=
EXTT2=
EXTT3=
EXTT4=
EXTT5=
EXTT6=
EXTT7=
EXTT8=
EXTT9=
EXTT10=
EXTT11=
EXTT12=
EXTT13=
PLAYORDER=
